# Blender 3.4.1
# www.blender.org
mtllib pblauncher_pbjar.mtl
o pblauncher_pbjar
v 2.547648 -0.213509 -0.475115
v 2.514146 -0.237849 -0.388733
v 2.458363 -0.128365 -0.388733
v 2.497744 -0.115569 -0.475115
v 2.625373 -0.291234 -0.475115
v 2.601033 -0.324735 -0.388733
v 2.723312 -0.341137 -0.475115
v 2.710516 -0.380519 -0.388733
v 2.831879 -0.358332 -0.475115
v 2.831879 -0.399741 -0.388733
v 2.940446 -0.341137 -0.475115
v 2.953243 -0.380519 -0.388733
v 2.831879 -0.399741 -0.388733
v 2.831879 -0.358332 -0.475115
v 3.038386 -0.291234 -0.475115
v 3.062726 -0.324735 -0.388733
v 3.116113 -0.213509 -0.475115
v 3.149612 -0.237849 -0.388733
v 3.166015 -0.115569 -0.475115
v 3.205397 -0.128365 -0.388733
v 3.183210 -0.007002 -0.475115
v 3.224619 -0.007002 -0.388733
v 3.166015 0.101565 -0.475115
v 3.205397 0.114361 -0.388733
v 3.116113 0.199505 -0.475115
v 3.149612 0.223845 -0.388733
v 3.038386 0.277230 -0.475115
v 3.062726 0.310731 -0.388733
v 2.940446 0.327133 -0.475115
v 2.953243 0.366516 -0.388733
v 2.831879 0.344328 -0.475115
v 2.831879 0.385737 -0.388733
v 2.723312 0.327133 -0.475115
v 2.710516 0.366515 -0.388733
v 2.625373 0.277230 -0.475115
v 2.601033 0.310731 -0.388733
v 2.547648 0.199505 -0.475115
v 2.514148 0.223845 -0.388733
v 2.497745 0.101565 -0.475115
v 2.458363 0.114361 -0.388733
v 2.480550 -0.007002 -0.475115
v 2.439140 -0.007002 -0.388733
v 2.547648 -0.213509 -0.475115
v 2.497744 -0.115569 -0.475115
v 2.831879 -0.007002 -0.427797
v 2.625373 -0.291234 -0.475115
v 2.723312 -0.341137 -0.475115
v 2.831879 -0.358332 -0.475115
v 2.940446 -0.341137 -0.475115
v 3.038386 -0.291234 -0.475115
v 3.116113 -0.213509 -0.475115
v 3.166015 -0.115569 -0.475115
v 3.183210 -0.007002 -0.475115
v 3.166015 0.101565 -0.475115
v 3.116113 0.199505 -0.475115
v 3.038386 0.277230 -0.475115
v 2.940446 0.327133 -0.475115
v 2.831879 0.344328 -0.475115
v 2.723312 0.327133 -0.475115
v 2.625373 0.277230 -0.475115
v 2.547648 0.199505 -0.475115
v 2.497745 0.101565 -0.475115
v 2.480550 -0.007002 -0.475115
v 2.463166 -0.126805 0.475115
v 2.518233 -0.234880 0.475115
v 2.831879 -0.007002 0.475115
v 2.604001 -0.320649 0.475115
v 2.712077 -0.375717 0.475115
v 2.831879 -0.394692 0.475115
v 2.951682 -0.375717 0.475115
v 3.059758 -0.320649 0.475115
v 3.145528 -0.234880 0.475115
v 3.200594 -0.126805 0.475115
v 3.219569 -0.007002 0.475115
v 3.200594 0.112801 0.475115
v 3.145528 0.220876 0.475115
v 3.059758 0.306645 0.475115
v 2.951682 0.361713 0.475115
v 2.831879 0.380687 0.475115
v 2.712077 0.361713 0.475115
v 2.604001 0.306645 0.475115
v 2.518233 0.220876 0.475115
v 2.463166 0.112801 0.475115
v 2.444190 -0.007002 0.475115
v 2.604001 -0.320649 0.311587
v 2.604001 -0.320649 0.475115
v 2.518233 -0.234880 0.475115
v 2.518233 -0.234880 0.311587
v 2.463166 -0.126805 0.475115
v 2.463166 -0.126805 0.311587
v 2.444190 -0.007002 0.475115
v 2.444190 -0.007002 0.311587
v 2.463166 0.112801 0.475115
v 2.463166 0.112801 0.311587
v 2.518233 0.220876 0.475115
v 2.518233 0.220876 0.311587
v 2.604001 0.306645 0.475115
v 2.604001 0.306645 0.311587
v 2.712077 0.361713 0.311587
v 2.831879 0.380687 0.311587
v 2.951682 0.361713 0.311587
v 3.059758 0.306645 0.475115
v 3.059758 0.306645 0.311587
v 3.145528 0.220876 0.475115
v 3.145528 0.220876 0.311587
v 3.200594 0.112801 0.475115
v 3.200594 0.112801 0.311587
v 3.219569 -0.007002 0.475115
v 3.219569 -0.007002 0.311587
v 3.200594 -0.126805 0.475115
v 3.200594 -0.126805 0.311587
v 3.145528 -0.234880 0.475115
v 3.145528 -0.234880 0.311587
v 3.059758 -0.320649 0.475115
v 3.059758 -0.320649 0.311587
v 2.951682 -0.375717 0.475115
v 2.951682 -0.375717 0.311587
v 2.831879 -0.394692 0.475115
v 2.831879 -0.394692 0.311587
v 2.831879 -0.394692 0.311587
v 2.831879 -0.394692 0.475115
v 2.712077 -0.375717 0.475115
v 2.712077 -0.375717 0.311587
v 2.518233 -0.234880 0.263362
v 2.549929 -0.211849 0.312781
v 2.500427 -0.114697 0.312781
v 2.463166 -0.126805 0.263362
v 2.483371 -0.007002 0.312781
v 2.444190 -0.007002 0.263362
v 2.500428 0.100693 0.312781
v 2.463166 0.112801 0.263362
v 2.549930 0.197847 0.312781
v 2.518233 0.220876 0.263362
v 2.627032 0.274948 0.312781
v 2.604001 0.306645 0.263362
v 2.724184 0.324450 0.312781
v 2.712077 0.361713 0.263362
v 2.831879 0.341507 0.312781
v 2.831879 0.380687 0.263362
v 2.939575 0.324450 0.312781
v 2.951682 0.361713 0.263362
v 3.036728 0.274948 0.312781
v 3.059758 0.306645 0.263362
v 3.113829 0.197847 0.312781
v 3.145528 0.220876 0.263362
v 3.163331 0.100693 0.312781
v 3.200594 0.112801 0.263362
v 3.180390 -0.007002 0.312781
v 3.219569 -0.007002 0.263362
v 3.163331 -0.114697 0.312781
v 3.200594 -0.126805 0.263362
v 3.113829 -0.211849 0.312781
v 3.145528 -0.234880 0.263362
v 3.036728 -0.288952 0.312781
v 3.059758 -0.320649 0.263362
v 2.939575 -0.338454 0.312781
v 2.951682 -0.375717 0.263362
v 2.831879 -0.355511 0.312781
v 2.831879 -0.394692 0.263362
v 2.831879 -0.394692 0.263362
v 2.831879 -0.355511 0.312781
v 2.724184 -0.338454 0.312781
v 2.712077 -0.375717 0.263362
v 2.627032 -0.288952 0.312781
v 2.604001 -0.320649 0.263362
v 2.549929 -0.211849 0.312781
v 2.518233 -0.234880 0.311587
v 2.463166 -0.126805 0.311587
v 2.500427 -0.114697 0.312781
v 2.444190 -0.007002 0.311587
v 2.483371 -0.007002 0.312781
v 2.463166 0.112801 0.311587
v 2.500428 0.100693 0.312781
v 2.518233 0.220876 0.311587
v 2.549930 0.197847 0.312781
v 2.604001 0.306645 0.311587
v 2.627032 0.274948 0.312781
v 2.712077 0.361713 0.311587
v 2.724184 0.324450 0.312781
v 2.831879 0.380687 0.311587
v 2.831879 0.341507 0.312781
v 2.951682 0.361713 0.311587
v 2.939575 0.324450 0.312781
v 3.059758 0.306645 0.311587
v 3.036728 0.274948 0.312781
v 3.145528 0.220876 0.311587
v 3.113829 0.197847 0.312781
v 3.200594 0.112801 0.311587
v 3.163331 0.100693 0.312781
v 3.219569 -0.007002 0.311587
v 3.180390 -0.007002 0.312781
v 3.200594 -0.126805 0.311587
v 3.163331 -0.114697 0.312781
v 3.145528 -0.234880 0.311587
v 3.113829 -0.211849 0.312781
v 3.059758 -0.320649 0.311587
v 3.036728 -0.288952 0.312781
v 2.951682 -0.375717 0.311587
v 2.939575 -0.338454 0.312781
v 2.831879 -0.394692 0.311587
v 2.831879 -0.355511 0.312781
v 2.712077 -0.375717 0.311587
v 2.724184 -0.338454 0.312781
v 2.604001 -0.320649 0.311587
v 2.627032 -0.288952 0.312781
v 2.601033 -0.324735 -0.388733
v 2.601387 -0.324248 -0.310909
v 2.514634 -0.237494 -0.310909
v 2.514146 -0.237849 -0.388733
v 2.458935 -0.128179 -0.310909
v 2.458363 -0.128365 -0.388733
v 2.458935 -0.128179 -0.310909
v 2.439744 -0.007002 -0.310909
v 2.458935 0.114175 -0.310909
v 2.514634 0.223490 -0.310909
v 2.601387 0.310243 -0.310909
v 2.710702 0.365942 -0.310909
v 2.831879 0.385135 -0.310909
v 2.953056 0.365942 -0.310909
v 3.062373 0.310243 -0.310909
v 3.149126 0.223490 -0.310909
v 3.204824 0.114175 -0.310909
v 3.224016 -0.007002 -0.310909
v 3.204824 -0.128179 -0.310909
v 3.205397 -0.128365 -0.388733
v 3.204824 -0.128179 -0.310909
v 3.149126 -0.237494 -0.310909
v 3.149612 -0.237849 -0.388733
v 3.062373 -0.324248 -0.310909
v 3.062726 -0.324735 -0.388733
v 2.953056 -0.379946 -0.310909
v 2.953243 -0.380519 -0.388733
v 2.831879 -0.399139 -0.310909
v 2.831879 -0.399741 -0.388733
v 2.710702 -0.379946 -0.310909
v 2.710516 -0.380519 -0.388733
v 2.517692 -0.235272 0.177151
v 2.518233 -0.234880 0.263362
v 2.463166 -0.126805 0.263362
v 2.462530 -0.127010 0.177151
v 2.462530 -0.127010 0.177151
v 2.443522 -0.007002 0.177151
v 2.462530 0.113007 0.177151
v 2.517692 0.221270 0.177151
v 2.603609 0.307185 0.177151
v 2.711870 0.362348 0.177151
v 2.831879 0.381355 0.177151
v 2.951888 0.362348 0.177151
v 3.060151 0.307185 0.177151
v 3.146067 0.221270 0.177151
v 3.201229 0.113007 0.177151
v 3.220237 -0.007002 0.177151
v 3.201229 -0.127010 0.177151
v 3.201229 -0.127010 0.177151
v 3.200594 -0.126805 0.263362
v 3.145528 -0.234880 0.263362
v 3.146067 -0.235272 0.177151
v 3.059758 -0.320649 0.263362
v 3.060151 -0.321190 0.177151
v 2.951682 -0.375717 0.263362
v 2.951889 -0.376352 0.177151
v 2.831879 -0.394692 0.263362
v 2.831879 -0.395360 0.177151
v 2.712077 -0.375717 0.263362
v 2.711870 -0.376352 0.177151
v 2.604001 -0.320649 0.263362
v 2.603609 -0.321190 0.177151
v 2.519922 -0.233652 -0.286845
v 2.522929 -0.231468 0.153087
v 2.468685 -0.125011 0.153087
v 2.465151 -0.126159 -0.286845
v 2.465151 -0.126159 -0.286845
v 2.468685 -0.125011 0.153087
v 2.449996 -0.007002 0.153087
v 2.446278 -0.007002 -0.286845
v 2.468687 0.111007 0.153087
v 2.465151 0.112155 -0.286845
v 2.522929 0.217464 0.153087
v 2.519922 0.219650 -0.286846
v 2.607413 0.301949 0.153087
v 2.605229 0.304956 -0.286846
v 2.713871 0.356192 0.153087
v 2.712722 0.359727 -0.286846
v 2.831879 0.374883 0.153087
v 2.831879 0.378599 -0.286846
v 2.949888 0.356192 0.153087
v 2.951037 0.359727 -0.286846
v 3.056347 0.301949 0.153087
v 3.058530 0.304956 -0.286846
v 3.140832 0.217464 0.153087
v 3.143837 0.219650 -0.286846
v 3.195073 0.111007 0.153087
v 3.198609 0.112155 -0.286845
v 3.213764 -0.007002 0.153087
v 3.217481 -0.007002 -0.286845
v 3.195073 -0.125011 0.153087
v 3.198609 -0.126159 -0.286845
v 3.198609 -0.126159 -0.286845
v 3.195073 -0.125011 0.153087
v 3.140832 -0.231468 0.153087
v 3.143837 -0.233652 -0.286845
v 3.056347 -0.315953 0.153087
v 3.058530 -0.318960 -0.286845
v 2.949888 -0.370196 0.153087
v 2.951037 -0.373731 -0.286845
v 2.831879 -0.388887 0.153087
v 2.831879 -0.392604 -0.286845
v 2.713871 -0.370196 0.153087
v 2.712722 -0.373731 -0.286845
v 2.607413 -0.315953 0.153087
v 2.605229 -0.318960 -0.286845
v 2.883235 0.358096 0.136516
v 2.894905 0.377621 0.131855
v 2.878511 0.383280 0.105899
v 2.865490 0.364221 0.108422
v 2.909791 0.348930 0.155288
v 2.919440 0.369153 0.149198
v 2.941117 0.338117 0.161880
v 2.948381 0.359163 0.155288
v 2.972444 0.327305 0.155288
v 2.977323 0.349174 0.149198
v 2.999001 0.318138 0.136516
v 3.001858 0.340705 0.131855
v 3.016744 0.312014 0.108422
v 3.018252 0.335047 0.105899
v 3.022976 0.309863 0.075283
v 3.024009 0.333060 0.075283
v 3.016744 0.312014 0.042143
v 3.018252 0.335047 0.044666
v 2.999001 0.318138 0.014049
v 3.001858 0.340705 0.018710
v 2.972444 0.327305 -0.004723
v 2.977323 0.349174 0.001367
v 2.941117 0.338117 -0.011315
v 2.948381 0.359163 -0.004723
v 2.909791 0.348930 -0.004723
v 2.919440 0.369153 0.001367
v 2.883235 0.358096 0.014049
v 2.894905 0.377621 0.018710
v 2.865490 0.364221 0.042143
v 2.878511 0.383280 0.044666
v 2.859259 0.366372 0.075283
v 2.872754 0.385267 0.075283
v 2.913611 0.391133 0.118581
v 2.901063 0.395464 0.098716
v 2.932389 0.384651 0.131855
v 2.954541 0.377006 0.136516
v 2.976691 0.369360 0.131855
v 2.995469 0.362878 0.118581
v 3.008016 0.358547 0.098716
v 3.012422 0.357027 0.075283
v 3.008016 0.358547 0.051850
v 2.995469 0.362878 0.031984
v 2.976691 0.369360 0.018710
v 2.954541 0.377005 0.014049
v 2.932389 0.384651 0.018710
v 2.913611 0.391133 0.031984
v 2.901063 0.395464 0.051850
v 2.896657 0.396984 0.075283
v 2.936504 0.396573 0.098716
v 2.929714 0.398917 0.087965
v 2.946667 0.393065 0.105899
v 2.958656 0.388927 0.108422
v 2.970644 0.384789 0.105899
v 2.980805 0.381282 0.098716
v 2.987596 0.378938 0.087965
v 2.989981 0.378115 0.075283
v 2.987596 0.378938 0.062601
v 2.980806 0.381282 0.051850
v 2.970644 0.384789 0.044666
v 2.958656 0.388927 0.042143
v 2.946667 0.393065 0.044666
v 2.936504 0.396573 0.051850
v 2.929714 0.398917 0.062601
v 2.927329 0.399740 0.075283
v 2.960100 0.393114 0.075283
v 2.663926 0.318164 0.136516
v 2.661078 0.340732 0.131855
v 2.644682 0.335081 0.105899
v 2.646179 0.312047 0.108422
v 2.690488 0.327318 0.155288
v 2.685618 0.349189 0.149198
v 2.721818 0.338116 0.161880
v 2.714563 0.359165 0.155288
v 2.753149 0.348914 0.155288
v 2.743509 0.369141 0.149198
v 2.779710 0.358068 0.136516
v 2.768048 0.377599 0.131855
v 2.797457 0.364184 0.108422
v 2.784445 0.383250 0.105899
v 2.803689 0.366332 0.075283
v 2.790203 0.385234 0.075283
v 2.797457 0.364184 0.042143
v 2.784445 0.383250 0.044666
v 2.779710 0.358068 0.014049
v 2.768049 0.377599 0.018710
v 2.753149 0.348914 -0.004723
v 2.743509 0.369141 0.001367
v 2.721818 0.338116 -0.011315
v 2.714563 0.359165 -0.004723
v 2.690488 0.327318 -0.004723
v 2.685619 0.349189 0.001367
v 2.663926 0.318164 0.014049
v 2.661078 0.340732 0.018710
v 2.646179 0.312047 0.042143
v 2.644682 0.335081 0.044666
v 2.639948 0.309900 0.075283
v 2.638924 0.333097 0.075283
v 2.667478 0.362902 0.118581
v 2.654929 0.358577 0.098716
v 2.686259 0.369375 0.131855
v 2.708413 0.377010 0.136516
v 2.730568 0.384646 0.131855
v 2.749349 0.391119 0.118581
v 2.761898 0.395444 0.098716
v 2.766305 0.396962 0.075283
v 2.761898 0.395444 0.051850
v 2.749349 0.391119 0.031984
v 2.730568 0.384646 0.018710
v 2.708413 0.377010 0.014049
v 2.686259 0.369375 0.018710
v 2.667478 0.362902 0.031984
v 2.654929 0.358577 0.051850
v 2.650521 0.357059 0.075283
v 2.682150 0.381299 0.098716
v 2.675359 0.378958 0.087965
v 2.692315 0.384802 0.105899
v 2.704304 0.388934 0.108422
v 2.716294 0.393066 0.105899
v 2.726458 0.396569 0.098716
v 2.733250 0.398910 0.087965
v 2.735635 0.399732 0.075283
v 2.733250 0.398910 0.062601
v 2.726458 0.396569 0.051850
v 2.716294 0.393066 0.044666
v 2.704304 0.388934 0.042143
v 2.692315 0.384802 0.044666
v 2.682150 0.381299 0.051850
v 2.675359 0.378958 0.062601
v 2.672973 0.378136 0.075283
v 2.702861 0.393121 0.075283
v 2.658158 0.365074 0.194226
v 2.674851 0.365074 0.236832
v 2.799459 0.384197 0.183753
v 2.785660 0.384197 0.148530
v 2.677775 0.342835 0.235687
v 2.802384 0.361957 0.182607
v 2.677775 0.342835 0.235687
v 2.661083 0.342835 0.193080
v 2.788584 0.361957 0.147384
v 2.802384 0.361957 0.182607
v 2.661083 0.342835 0.193080
v 2.788584 0.361957 0.147384
v 2.661083 0.342835 0.193080
v 2.677775 0.342835 0.235687
v 2.802384 0.361957 0.182607
v 2.788584 0.361957 0.147384
v 2.859615 0.384197 0.189930
v 2.970835 0.365074 0.267229
v 2.995840 0.365074 0.228904
v 2.880286 0.384197 0.158248
v 2.856984 0.361957 0.188214
v 2.968204 0.342835 0.265512
v 2.877655 0.361957 0.156532
v 2.993208 0.342835 0.227188
v 2.968204 0.342835 0.265512
v 2.856984 0.361957 0.188214
v 2.993208 0.342835 0.227188
v 2.877655 0.361957 0.156532
v 2.968204 0.342835 0.265512
v 2.993208 0.342835 0.227188
v 2.856984 0.361957 0.188214
v 2.877655 0.361957 0.156532
vn -0.7295 -0.5300 -0.4323
vn -0.7904 -0.5743 -0.2132
vn -0.9292 -0.3019 -0.2132
vn -0.8576 -0.2787 -0.4323
vn -0.5300 -0.7295 -0.4323
vn -0.5743 -0.7904 -0.2132
vn -0.2787 -0.8576 -0.4323
vn -0.3019 -0.9292 -0.2132
vn -0.0000 -0.9017 -0.4323
vn -0.0000 -0.9770 -0.2132
vn -0.2786 -0.8576 -0.4323
vn 0.2786 -0.8576 -0.4323
vn 0.3019 -0.9292 -0.2132
vn 0.5300 -0.7295 -0.4323
vn 0.5743 -0.7904 -0.2132
vn 0.2787 -0.8576 -0.4323
vn 0.7295 -0.5300 -0.4323
vn 0.7904 -0.5743 -0.2132
vn 0.5743 -0.7904 -0.2133
vn 0.8576 -0.2787 -0.4323
vn 0.9292 -0.3019 -0.2132
vn 0.9017 -0.0000 -0.4323
vn 0.9770 -0.0000 -0.2132
vn 0.8576 -0.2786 -0.4323
vn 0.8576 0.2786 -0.4323
vn 0.9292 0.3019 -0.2132
vn 0.7295 0.5300 -0.4323
vn 0.7904 0.5743 -0.2132
vn 0.8576 0.2787 -0.4323
vn 0.7295 0.5301 -0.4323
vn 0.5300 0.7295 -0.4323
vn 0.5743 0.7904 -0.2132
vn 0.2787 0.8576 -0.4323
vn 0.3019 0.9292 -0.2132
vn -0.0000 0.9017 -0.4323
vn -0.0000 0.9770 -0.2132
vn 0.2786 0.8576 -0.4323
vn -0.2786 0.8576 -0.4323
vn -0.3019 0.9292 -0.2132
vn -0.5300 0.7295 -0.4323
vn -0.5743 0.7904 -0.2132
vn -0.2787 0.8576 -0.4323
vn -0.7295 0.5300 -0.4323
vn -0.7904 0.5743 -0.2132
vn -0.8576 0.2787 -0.4323
vn -0.9292 0.3019 -0.2132
vn -0.9017 -0.0000 -0.4323
vn -0.9770 -0.0000 -0.2132
vn -0.8576 0.2786 -0.4323
vn -0.8576 -0.2786 -0.4323
vn -0.9292 -0.3019 -0.2133
vn -0.7295 -0.5301 -0.4323
vn -0.8576 -0.2786 -0.4322
vn -0.0000 -0.0000 -1.0000
vn -0.2786 -0.8576 -0.4322
vn -0.5301 -0.7295 -0.4323
vn -0.0000 -0.9018 -0.4322
vn -0.2787 -0.8576 -0.4322
vn 0.2787 -0.8576 -0.4322
vn 0.5301 -0.7295 -0.4323
vn 0.2786 -0.8576 -0.4322
vn 0.8576 -0.2786 -0.4322
vn 0.7295 -0.5301 -0.4322
vn 0.9018 -0.0000 -0.4322
vn 0.8576 -0.2787 -0.4322
vn 0.8576 0.2787 -0.4322
vn 0.7295 0.5301 -0.4322
vn 0.8576 0.2786 -0.4322
vn 0.7295 0.5300 -0.4322
vn 0.5301 0.7295 -0.4323
vn -0.2787 0.8576 -0.4322
vn -0.5301 0.7295 -0.4323
vn -0.2786 0.8576 -0.4322
vn -0.7296 0.5300 -0.4323
vn -0.7295 0.5301 -0.4323
vn -0.8576 0.2787 -0.4322
vn -0.8576 -0.2787 -0.4322
vn -0.0000 -0.0000 1.0000
vn -0.5878 -0.8090 -0.0000
vn -0.8090 -0.5878 -0.0000
vn -0.0000 0.0001 1.0000
vn -0.9511 -0.3090 -0.0000
vn -0.9510 -0.3090 -0.0000
vn -1.0000 -0.0000 -0.0000
vn -0.9510 0.3090 -0.0000
vn -0.9511 0.3090 -0.0000
vn -0.8090 0.5878 -0.0000
vn -0.5878 0.8090 -0.0000
vn 0.0001 -0.0000 1.0000
vn -0.3090 0.9511 -0.0000
vn -0.0000 1.0000 0.0001
vn -0.0000 1.0000 -0.0000
vn 0.3090 0.9511 -0.0000
vn 0.5878 0.8090 0.0001
vn 0.5878 0.8090 -0.0000
vn 0.0001 -0.0001 1.0000
vn 0.8090 0.5878 0.0001
vn 0.8090 0.5878 -0.0000
vn -0.0000 -0.0001 1.0000
vn 0.9511 0.3090 -0.0000
vn 1.0000 -0.0000 -0.0000
vn 0.9511 -0.3090 -0.0000
vn 0.8090 -0.5878 -0.0000
vn -0.0001 -0.0001 1.0000
vn 0.5878 -0.8090 -0.0000
vn -0.0001 -0.0000 1.0000
vn 0.3090 -0.9511 -0.0000
vn -0.0000 -1.0000 -0.0000
vn -0.3090 -0.9511 -0.0000
vn -0.6339 -0.4606 0.6213
vn -0.7453 -0.2421 0.6212
vn -0.7836 -0.0000 0.6213
vn -0.7453 -0.2422 0.6212
vn -0.7453 0.2422 0.6213
vn -0.7452 0.2422 0.6213
vn -0.7453 0.2421 0.6212
vn -0.7453 0.2421 0.6213
vn -0.6340 0.4606 0.6212
vn -0.6339 0.4606 0.6213
vn -0.6340 0.4606 0.6213
vn -0.4606 0.6340 0.6213
vn -0.4606 0.6339 0.6213
vn -0.2421 0.7453 0.6213
vn -0.2422 0.7452 0.6213
vn -0.0000 0.7836 0.6213
vn -0.2421 0.7452 0.6213
vn 0.2422 0.7452 0.6213
vn 0.2422 0.7453 0.6213
vn 0.2421 0.7453 0.6213
vn 0.4606 0.6339 0.6213
vn 0.2421 0.7452 0.6213
vn 0.4606 0.6340 0.6213
vn 0.6340 0.4606 0.6213
vn 0.6339 0.4606 0.6213
vn 0.7453 0.2421 0.6213
vn 0.7453 0.2422 0.6213
vn 0.7452 0.2422 0.6213
vn 0.7836 -0.0000 0.6213
vn 0.7836 -0.0000 0.6212
vn 0.7453 -0.2422 0.6213
vn 0.7452 -0.2422 0.6213
vn 0.7452 -0.2421 0.6213
vn 0.6340 -0.4606 0.6213
vn 0.6339 -0.4606 0.6213
vn 0.7453 -0.2421 0.6213
vn 0.4606 -0.6340 0.6213
vn 0.4606 -0.6339 0.6213
vn 0.2421 -0.7453 0.6213
vn 0.2422 -0.7452 0.6213
vn -0.0000 -0.7836 0.6213
vn 0.2422 -0.7453 0.6213
vn -0.2422 -0.7453 0.6213
vn -0.2422 -0.7452 0.6213
vn -0.2421 -0.7453 0.6213
vn -0.4606 -0.6339 0.6213
vn -0.4606 -0.6340 0.6213
vn -0.6340 -0.4606 0.6213
vn -0.6340 -0.4606 0.6212
vn -0.6358 -0.4581 0.6212
vn -0.9510 -0.3091 -0.0000
vn -0.7453 -0.2421 0.6213
vn -0.7462 -0.2392 0.6212
vn -1.0000 -0.0001 -0.0000
vn -0.7452 -0.2421 0.6213
vn -0.7836 0.0031 0.6213
vn -0.9510 0.3091 -0.0000
vn -0.9511 0.3089 -0.0000
vn -0.7443 0.2451 0.6212
vn -0.8091 0.5877 -0.0000
vn -0.7452 0.2421 0.6213
vn -0.6321 0.4631 0.6212
vn -0.8090 0.5877 -0.0000
vn -0.5879 0.8089 -0.0000
vn -0.4605 0.6340 0.6213
vn -0.4581 0.6358 0.6213
vn -0.3091 0.9510 -0.0000
vn -0.2392 0.7462 0.6212
vn 0.0001 1.0000 -0.0000
vn -0.0001 1.0000 -0.0000
vn 0.0031 0.7836 0.6212
vn 0.3091 0.9510 -0.0000
vn 0.3089 0.9511 -0.0000
vn 0.2451 0.7443 0.6212
vn 0.5880 0.8089 -0.0000
vn 0.4631 0.6321 0.6212
vn 0.5877 0.8090 -0.0000
vn 0.8090 0.5879 -0.0000
vn 0.6358 0.4581 0.6212
vn 0.9512 0.3087 -0.0000
vn 0.7462 0.2392 0.6213
vn 0.9510 0.3091 -0.0000
vn 1.0000 0.0001 -0.0000
vn 0.7836 -0.0031 0.6212
vn 0.9510 -0.3091 -0.0000
vn 0.9511 -0.3089 -0.0000
vn 0.7443 -0.2451 0.6213
vn 0.8091 -0.5877 -0.0000
vn 0.6321 -0.4631 0.6213
vn 0.5877 -0.8090 -0.0000
vn 0.5876 -0.8091 -0.0000
vn 0.4581 -0.6358 0.6212
vn 0.3091 -0.9510 -0.0000
vn 0.2392 -0.7462 0.6212
vn 0.0001 -1.0000 -0.0000
vn 0.2421 -0.7452 0.6213
vn -0.0031 -0.7836 0.6212
vn -0.3091 -0.9510 -0.0000
vn -0.3089 -0.9511 -0.0000
vn -0.2451 -0.7443 0.6212
vn -0.5877 -0.8091 -0.0000
vn -0.2421 -0.7452 0.6213
vn -0.4631 -0.6321 0.6212
vn -0.8090 -0.5877 -0.0000
vn -0.8089 -0.5879 -0.0000
vn -0.5825 -0.8017 0.1343
vn -0.8017 -0.5825 0.1344
vn -0.7904 -0.5742 -0.2132
vn -0.9424 -0.3062 0.1344
vn -0.9424 -0.3062 0.1343
vn -0.9909 -0.0000 0.1343
vn -0.9424 0.3062 0.1344
vn -0.9292 0.3019 -0.2133
vn -0.9424 0.3062 0.1343
vn -0.8017 0.5825 0.1343
vn -0.7904 0.5743 -0.2133
vn -0.5825 0.8017 0.1343
vn -0.5825 0.8017 0.1344
vn -0.3062 0.9424 0.1344
vn -0.3062 0.9424 0.1343
vn -0.0000 0.9909 0.1344
vn -0.0000 0.9770 -0.2133
vn -0.0000 0.9909 0.1343
vn 0.3062 0.9424 0.1343
vn 0.3062 0.9424 0.1344
vn 0.5825 0.8017 0.1344
vn 0.5824 0.8017 0.1344
vn 0.8017 0.5825 0.1343
vn 0.8017 0.5825 0.1344
vn 0.7904 0.5743 -0.2133
vn 0.9424 0.3062 0.1343
vn 0.9424 0.3062 0.1344
vn 0.9909 -0.0000 0.1344
vn 0.9424 -0.3062 0.1344
vn 0.9424 -0.3062 0.1343
vn 0.8017 -0.5824 0.1344
vn 0.7904 -0.5743 -0.2133
vn 0.8017 -0.5825 0.1344
vn 0.5825 -0.8017 0.1343
vn 0.5825 -0.8017 0.1344
vn 0.3062 -0.9424 0.1343
vn 0.3062 -0.9424 0.1344
vn -0.0000 -0.9909 0.1344
vn -0.0000 -0.9909 0.1343
vn -0.0000 -0.9770 -0.2133
vn -0.3062 -0.9424 0.1343
vn -0.3062 -0.9424 0.1344
vn -0.5825 -0.8017 0.1344
vn -0.5824 -0.8017 0.1344
vn -0.5743 -0.7904 -0.2133
vn -0.8026 -0.5831 -0.1255
vn -0.9435 -0.3066 -0.1255
vn -0.8026 -0.5832 -0.1255
vn -0.9921 -0.0000 -0.1255
vn -0.9435 0.3066 -0.1255
vn -0.6339 0.4606 0.6212
vn -0.8026 0.5831 -0.1255
vn -0.4606 0.6340 0.6212
vn -0.5832 0.8026 -0.1255
vn -0.5831 0.8026 -0.1255
vn -0.3066 0.9435 -0.1255
vn -0.0000 0.9921 -0.1255
vn 0.3066 0.9435 -0.1255
vn 0.4605 0.6340 0.6213
vn 0.5831 0.8026 -0.1255
vn 0.8026 0.5831 -0.1255
vn 0.8026 0.5832 -0.1255
vn 0.9435 0.3066 -0.1255
vn 0.7836 -0.0001 0.6213
vn 0.9921 -0.0000 -0.1255
vn 0.9435 -0.3066 -0.1255
vn 0.6339 -0.4605 0.6213
vn 0.8026 -0.5831 -0.1255
vn 0.8026 -0.5832 -0.1255
vn 0.5831 -0.8026 -0.1255
vn 0.3066 -0.9435 -0.1255
vn 0.5832 -0.8026 -0.1255
vn -0.0000 -0.9921 -0.1255
vn -0.3066 -0.9435 -0.1255
vn -0.5831 -0.8026 -0.1255
vn -0.8013 -0.5822 0.1382
vn -0.8023 -0.5829 -0.1286
vn -0.9432 -0.3064 -0.1285
vn -0.9432 -0.3065 -0.1285
vn -0.9419 -0.3061 0.1381
vn -0.8013 -0.5821 0.1382
vn -0.9419 -0.3060 0.1382
vn -0.9917 -0.0000 -0.1286
vn -0.9904 -0.0000 0.1381
vn -0.9419 -0.3061 0.1382
vn -0.9432 0.3065 -0.1286
vn -0.9419 0.3061 0.1382
vn -0.8023 0.5829 -0.1286
vn -0.8013 0.5821 0.1382
vn -0.5829 0.8023 -0.1285
vn -0.5821 0.8013 0.1382
vn -0.8013 0.5822 0.1382
vn -0.3064 0.9432 -0.1286
vn -0.3065 0.9432 -0.1286
vn -0.3061 0.9419 0.1382
vn -0.0000 0.9917 -0.1285
vn -0.0000 0.9904 0.1381
vn -0.3060 0.9419 0.1382
vn -0.0000 0.9904 0.1382
vn 0.3065 0.9432 -0.1286
vn 0.3065 0.9432 -0.1285
vn 0.3061 0.9419 0.1381
vn 0.3061 0.9419 0.1382
vn 0.3064 0.9432 -0.1285
vn 0.5829 0.8023 -0.1285
vn 0.5821 0.8013 0.1382
vn 0.5822 0.8013 0.1382
vn 0.8023 0.5829 -0.1285
vn 0.8013 0.5822 0.1381
vn 0.8012 0.5822 0.1382
vn 0.8023 0.5829 -0.1286
vn 0.9432 0.3064 -0.1286
vn 0.9432 0.3064 -0.1285
vn 0.9419 0.3061 0.1382
vn 0.8013 0.5821 0.1382
vn 0.9432 0.3065 -0.1285
vn 0.9917 -0.0000 -0.1286
vn 0.9904 -0.0000 0.1382
vn 0.9419 0.3060 0.1382
vn 0.9432 -0.3065 -0.1286
vn 0.9432 -0.3065 -0.1285
vn 0.9419 -0.3061 0.1381
vn 0.9419 -0.3060 0.1382
vn 0.8023 -0.5829 -0.1285
vn 0.8013 -0.5821 0.1382
vn 0.8012 -0.5822 0.1382
vn 0.5829 -0.8023 -0.1286
vn 0.5829 -0.8023 -0.1285
vn 0.5822 -0.8012 0.1382
vn 0.5821 -0.8013 0.1382
vn 0.3064 -0.9432 -0.1286
vn 0.3065 -0.9432 -0.1286
vn 0.3060 -0.9419 0.1381
vn 0.3061 -0.9419 0.1382
vn -0.0000 -0.9917 -0.1286
vn -0.0000 -0.9904 0.1382
vn 0.3061 -0.9419 0.1381
vn -0.3065 -0.9432 -0.1286
vn -0.3061 -0.9419 0.1382
vn -0.0000 -0.9904 0.1381
vn -0.3064 -0.9432 -0.1286
vn -0.5829 -0.8023 -0.1286
vn -0.5822 -0.8013 0.1381
vn -0.5822 -0.8013 0.1382
vn -0.8013 -0.5821 0.1381
vn -0.8017 -0.5824 0.1344
vn -0.8023 -0.5829 -0.1285
vn -0.9419 0.3060 0.1381
vn -0.9432 0.3065 -0.1285
vn -0.9419 0.3061 0.1381
vn -0.8017 0.5824 0.1343
vn -0.9432 0.3064 -0.1286
vn -0.8017 0.5825 0.1344
vn -0.8013 0.5821 0.1381
vn -0.5822 0.8013 0.1381
vn -0.8023 0.5829 -0.1285
vn -0.8026 0.5832 -0.1255
vn -0.3061 0.9419 0.1381
vn -0.3060 0.9419 0.1381
vn -0.3065 0.9432 -0.1285
vn 0.3064 0.9432 -0.1286
vn 0.3060 0.9419 0.1381
vn 0.5832 0.8026 -0.1255
vn 0.8017 0.5824 0.1344
vn 0.9419 0.3060 0.1381
vn 0.9419 0.3061 0.1381
vn 0.9904 -0.0000 0.1381
vn 0.9909 -0.0000 0.1343
vn 0.9432 -0.3064 -0.1286
vn 0.8013 -0.5822 0.1382
vn 0.5822 -0.8013 0.1382
vn 0.5824 -0.8017 0.1344
vn -0.3061 -0.9419 0.1381
vn -0.0000 -0.9917 -0.1285
vn -0.3060 -0.9419 0.1381
vn -0.5821 -0.8013 0.1382
vn -0.5832 -0.8026 -0.1255
vn -0.5829 -0.8023 -0.1285
vn -0.3065 -0.9432 -0.1285
vn -0.3064 -0.9432 -0.1285
vn -0.5483 0.4896 0.6780
vn -0.4178 0.6701 0.6135
vn -0.5956 0.7315 0.3320
vn -0.7447 0.5574 0.3670
vn -0.2542 0.3881 0.8859
vn -0.1517 0.5783 0.8016
vn 0.0926 0.2684 0.9589
vn 0.1622 0.4699 0.8677
vn -0.1516 0.5783 0.8016
vn -0.2543 0.3881 0.8859
vn 0.4395 0.1486 0.8859
vn 0.4761 0.3616 0.8016
vn 0.7336 0.0472 0.6780
vn 0.7422 0.2698 0.6135
vn 0.9300 -0.0207 0.3670
vn 0.9200 0.2084 0.3320
vn 0.7335 0.0472 0.6780
vn 0.9990 -0.0445 -0.0000
vn 0.9824 0.1868 -0.0000
vn 0.9199 0.2084 0.3321
vn 0.9300 -0.0207 0.3669
vn 0.9300 -0.0207 -0.3669
vn 0.9200 0.2084 -0.3320
vn 0.7336 0.0472 -0.6780
vn 0.7422 0.2698 -0.6135
vn 0.9200 0.2084 -0.3321
vn 0.7335 0.0471 -0.6780
vn 0.4395 0.1486 -0.8859
vn 0.4761 0.3616 -0.8016
vn 0.7336 0.0471 -0.6780
vn 0.0926 0.2684 -0.9589
vn 0.1622 0.4699 -0.8677
vn -0.2543 0.3881 -0.8859
vn -0.1517 0.5783 -0.8016
vn 0.1622 0.4700 -0.8677
vn -0.5483 0.4896 -0.6780
vn -0.4178 0.6701 -0.6135
vn -0.2542 0.3881 -0.8859
vn -0.7448 0.5574 -0.3670
vn -0.5955 0.7315 -0.3320
vn -0.4177 0.6701 -0.6136
vn -0.7448 0.5574 -0.3669
vn -0.8138 0.5812 -0.0000
vn -0.6580 0.7530 -0.0000
vn -0.5956 0.7315 -0.3321
vn -0.7447 0.5574 -0.3670
vn -0.7448 0.5574 0.3669
vn -0.5955 0.7315 0.3321
vn -0.1253 0.9022 0.4128
vn -0.2449 0.9435 0.2234
vn -0.5955 0.7315 0.3320
vn 0.0537 0.8404 0.5393
vn -0.4177 0.6701 0.6135
vn -0.1517 0.5782 0.8016
vn 0.2649 0.7675 0.5838
vn 0.0537 0.8404 0.5394
vn 0.4761 0.6946 0.5393
vn 0.6551 0.6328 0.4128
vn 0.9200 0.2084 0.3321
vn 0.7747 0.5915 0.2234
vn 0.8167 0.5770 -0.0000
vn 0.9824 0.1869 -0.0000
vn 0.7747 0.5915 -0.2234
vn 0.6551 0.6328 -0.4128
vn 0.7422 0.2697 -0.6135
vn 0.4761 0.6946 -0.5393
vn 0.7421 0.2698 -0.6135
vn 0.2649 0.7675 -0.5838
vn 0.4761 0.6946 -0.5394
vn 0.0537 0.8404 -0.5393
vn -0.1253 0.9022 -0.4128
vn 0.0537 0.8404 -0.5394
vn -0.5956 0.7315 -0.3320
vn -0.2449 0.9435 -0.2234
vn -0.2869 0.9580 -0.0000
vn -0.5956 0.7315 0.3321
vn 0.1181 0.9715 0.2053
vn 0.0587 0.9921 0.1111
vn 0.2072 0.9408 0.2682
vn 0.1182 0.9715 0.2053
vn 0.3122 0.9046 0.2903
vn 0.4173 0.8683 0.2682
vn 0.3122 0.9045 0.2903
vn 0.3122 0.9045 0.2904
vn 0.5063 0.8376 0.2053
vn 0.4173 0.8683 0.2683
vn 0.5658 0.8170 0.1112
vn 0.5867 0.8098 -0.0000
vn 0.5658 0.8170 0.1111
vn 0.5658 0.8170 -0.1111
vn 0.5063 0.8376 -0.2053
vn 0.4173 0.8683 -0.2682
vn 0.3122 0.9046 -0.2903
vn 0.4172 0.8683 -0.2683
vn 0.2072 0.9408 -0.2682
vn 0.3122 0.9046 -0.2904
vn 0.3122 0.9045 -0.2904
vn 0.1182 0.9715 -0.2053
vn 0.0587 0.9921 -0.1111
vn 0.1181 0.9715 -0.2053
vn 0.0378 0.9993 -0.0000
vn -0.2449 0.9434 0.2234
vn 0.0586 0.9921 0.1111
vn 0.0377 0.9993 -0.0000
vn 0.3263 0.9453 -0.0000
vn 0.3122 0.9046 0.2904
vn 0.4173 0.8683 -0.2683
vn 0.2072 0.9408 -0.2683
vn -0.7335 0.0475 0.6780
vn -0.7421 0.2701 0.6135
vn -0.9199 0.2088 0.3320
vn -0.9300 -0.0203 0.3669
vn -0.4394 0.1488 0.8859
vn -0.4759 0.3618 0.8016
vn -0.7420 0.2701 0.6135
vn -0.0925 0.2684 0.9589
vn -0.1620 0.4700 0.8677
vn 0.2544 0.3880 0.8859
vn 0.1519 0.5782 0.8016
vn 0.5485 0.4893 0.6780
vn 0.4181 0.6699 0.6135
vn 0.7450 0.5570 0.3670
vn 0.5959 0.7312 0.3320
vn 0.4181 0.6699 0.6136
vn 0.7450 0.5570 0.3669
vn 0.8141 0.5808 -0.0000
vn 0.6584 0.7527 -0.0000
vn 0.5959 0.7312 0.3321
vn 0.7450 0.5570 -0.3669
vn 0.5959 0.7312 -0.3320
vn 0.6583 0.7527 -0.0000
vn 0.8140 0.5808 -0.0000
vn 0.5485 0.4893 -0.6780
vn 0.4181 0.6699 -0.6135
vn 0.2544 0.3880 -0.8859
vn 0.1520 0.5782 -0.8016
vn -0.0925 0.2684 -0.9589
vn -0.1620 0.4700 -0.8677
vn 0.1519 0.5782 -0.8016
vn 0.2544 0.3879 -0.8859
vn -0.4394 0.1488 -0.8859
vn -0.4759 0.3618 -0.8016
vn -0.4394 0.1489 -0.8859
vn -0.7335 0.0475 -0.6780
vn -0.7420 0.2701 -0.6136
vn -0.9300 -0.0203 -0.3669
vn -0.9199 0.2088 -0.3320
vn -0.7420 0.2701 -0.6135
vn -0.9990 -0.0441 -0.0000
vn -0.9823 0.1873 -0.0000
vn -0.9199 0.2088 -0.3321
vn -0.9300 -0.0202 -0.3669
vn -0.9199 0.2088 0.3321
vn -0.9823 0.1872 -0.0000
vn -0.6548 0.6331 0.4128
vn -0.7744 0.5919 0.2234
vn -0.4757 0.6948 0.5393
vn -0.7420 0.2701 0.6136
vn -0.2646 0.7676 0.5838
vn -0.4758 0.6948 0.5393
vn -0.4758 0.6948 0.5394
vn -0.0533 0.8404 0.5393
vn -0.2645 0.7676 0.5838
vn 0.1257 0.9021 0.4128
vn -0.0533 0.8404 0.5394
vn 0.1520 0.5782 0.8016
vn 0.2453 0.9434 0.2234
vn 0.2874 0.9578 -0.0000
vn 0.2453 0.9433 0.2234
vn 0.2454 0.9433 0.2234
vn 0.2454 0.9433 -0.2234
vn 0.2873 0.9578 -0.0000
vn 0.1257 0.9021 -0.4128
vn 0.2453 0.9433 -0.2234
vn -0.0534 0.8404 -0.5393
vn -0.2646 0.7676 -0.5838
vn -0.0533 0.8404 -0.5393
vn -0.0533 0.8404 -0.5394
vn -0.4758 0.6948 -0.5393
vn -0.6548 0.6331 -0.4128
vn -0.7745 0.5919 -0.2234
vn -0.8165 0.5774 -0.0000
vn -0.7744 0.5919 -0.2234
vn -0.5059 0.8378 0.2053
vn -0.5654 0.8173 0.1111
vn -0.4168 0.8685 0.2682
vn -0.3118 0.9047 0.2903
vn -0.4168 0.8685 0.2683
vn -0.2067 0.9409 0.2682
vn -0.3118 0.9047 0.2904
vn -0.1177 0.9716 0.2053
vn -0.2068 0.9409 0.2682
vn -0.0534 0.8404 0.5393
vn -0.0582 0.9921 0.1111
vn -0.0373 0.9993 -0.0000
vn 0.2453 0.9434 -0.2234
vn -0.0582 0.9921 -0.1111
vn -0.1177 0.9716 -0.2053
vn -0.2067 0.9409 -0.2682
vn -0.3118 0.9047 -0.2903
vn -0.2068 0.9409 -0.2682
vn -0.2068 0.9409 -0.2683
vn -0.4758 0.6948 -0.5394
vn -0.4168 0.8685 -0.2682
vn -0.3118 0.9047 -0.2904
vn -0.5059 0.8378 -0.2053
vn -0.4169 0.8685 -0.2682
vn -0.5654 0.8173 -0.1111
vn -0.5863 0.8101 -0.0000
vn -0.3258 0.9454 -0.0000
vn -0.2067 0.9409 -0.2683
vn -0.4168 0.8685 -0.2683
vn -0.1302 0.9902 0.0510
vn -0.1305 0.9901 0.0512
vn 0.3914 0.0041 0.9202
vn -0.1303 0.9902 0.0510
vn -0.1303 0.9902 0.0511
vn 0.1302 -0.9902 -0.0510
vn -0.1301 0.9902 0.0510
vn 0.1301 -0.9902 -0.0510
vn -0.1302 0.9902 0.0511
vn 0.1302 -0.9902 -0.0511
vn 0.3913 0.0041 0.9202
vn -0.1302 0.9902 0.0509
vn 0.1171 0.9902 0.0764
vn -0.5702 0.0040 0.8215
vn 0.1172 0.9902 0.0765
vn 0.1172 0.9902 0.0764
vn -0.5702 0.0041 0.8215
vn -0.1171 -0.9902 -0.0764
vn -0.5703 0.0041 0.8214
vn -0.5703 0.0041 0.8215
vn 0.1171 0.9902 0.0763
vn -0.1175 -0.9901 -0.0766
vn 0.1171 0.9902 0.0765
vn 0.1172 0.9902 0.0763
vn -0.1172 -0.9902 -0.0764
vt 0.718495 0.059626
vt 0.728985 0.093847
vt 0.685683 0.101659
vt 0.679232 0.065615
vt 0.755814 0.046773
vt 0.769539 0.079097
vt 0.790785 0.028694
vt 0.808489 0.058867
vt 0.823975 0.005793
vt 0.845589 0.033471
vt 0.069516 0.028513
vt 0.051718 0.058705
vt 0.014721 0.033335
vt 0.036633 0.005793
vt 0.105197 0.046594
vt 0.090843 0.078957
vt 0.141778 0.059648
vt 0.131405 0.093888
vt 0.181857 0.066078
vt 0.175625 0.101191
vt 0.222345 0.067602
vt 0.218631 0.101800
vt 0.263544 0.067845
vt 0.261448 0.102008
vt 0.305850 0.066848
vt 0.304694 0.101280
vt 0.347675 0.065736
vt 0.346249 0.100860
vt 0.389272 0.066067
vt 0.388379 0.100496
vt 0.430619 0.066831
vt 0.430455 0.100484
vt 0.472428 0.066243
vt 0.473086 0.100525
vt 0.514242 0.065847
vt 0.514749 0.101088
vt 0.556109 0.067055
vt 0.556926 0.101297
vt 0.597491 0.067961
vt 0.599582 0.101652
vt 0.638970 0.067190
vt 0.642909 0.101436
vt 0.362129 0.373922
vt 0.388354 0.373922
vt 0.375241 0.456435
vt 0.337226 0.382046
vt 0.316109 0.397502
vt 0.300791 0.418711
vt 0.292790 0.443624
vt 0.292911 0.469796
vt 0.301116 0.494662
vt 0.316567 0.515760
vt 0.337769 0.531019
vt 0.362643 0.538955
vt 0.388770 0.538848
vt 0.413564 0.530700
vt 0.434640 0.515264
vt 0.449951 0.494103
vt 0.457949 0.469271
vt 0.457869 0.443153
vt 0.449726 0.418335
vt 0.434323 0.397232
vt 0.413179 0.381945
vt 0.764063 0.708445
vt 0.727323 0.690386
vt 0.802414 0.583182
vt 0.698156 0.661401
vt 0.679208 0.624953
vt 0.672403 0.584684
vt 0.678490 0.544378
vt 0.696596 0.507308
vt 0.725218 0.477942
vt 0.761495 0.459192
vt 0.801719 0.452460
vt 0.841882 0.458127
vt 0.878200 0.476135
vt 0.907395 0.504708
vt 0.930406 0.540653
vt 0.931783 0.581509
vt 0.930406 0.623425
vt 0.909355 0.660979
vt 0.881623 0.689702
vt 0.844637 0.707570
vt 0.804478 0.714323
vt 0.984290 0.911975
vt 0.930406 0.911975
vt 0.930406 0.871071
vt 0.984290 0.871071
vt 0.930406 0.830240
vt 0.984290 0.830240
vt 0.930406 0.788836
vt 0.984290 0.788836
vt 0.930406 0.747390
vt 0.984290 0.747390
vt 0.930406 0.706793
vt 0.984290 0.706793
vt 0.930406 0.664996
vt 0.984290 0.664996
vt 0.984290 0.623425
vt 0.984290 0.581508
vt 0.984290 0.540653
vt 0.930406 0.500168
vt 0.984290 0.499797
vt 0.930406 0.458994
vt 0.984290 0.458994
vt 0.930406 0.418194
vt 0.984290 0.418194
vt 0.930406 0.377521
vt 0.984290 0.377521
vt 0.930406 0.336886
vt 0.984290 0.336886
vt 0.930406 0.296082
vt 0.984290 0.296082
vt 0.930406 0.255163
vt 0.984290 0.255162
vt 0.930406 0.214368
vt 0.984290 0.214368
vt 0.930406 0.173720
vt 0.984290 0.173720
vt 0.984290 0.994620
vt 0.930406 0.994620
vt 0.930406 0.953230
vt 0.984290 0.953230
vt 0.721678 0.349240
vt 0.710729 0.371111
vt 0.673335 0.361764
vt 0.680434 0.338542
vt 0.634684 0.358989
vt 0.639388 0.336590
vt 0.595046 0.358507
vt 0.598188 0.335708
vt 0.553316 0.358987
vt 0.555189 0.335510
vt 0.512799 0.358109
vt 0.514081 0.335687
vt 0.472000 0.358962
vt 0.472228 0.336129
vt 0.431389 0.359457
vt 0.431277 0.336335
vt 0.389776 0.360252
vt 0.389095 0.336640
vt 0.348712 0.359475
vt 0.347941 0.336916
vt 0.307789 0.360317
vt 0.306302 0.336795
vt 0.267164 0.359820
vt 0.265301 0.337097
vt 0.227020 0.360303
vt 0.222376 0.338160
vt 0.188180 0.363063
vt 0.180570 0.339770
vt 0.151118 0.372832
vt 0.140256 0.350992
vt 0.116138 0.390690
vt 0.103279 0.371478
vt 0.085477 0.415500
vt 0.069172 0.399109
vt 0.060142 0.445946
vt 0.041078 0.433015
vt 0.820509 0.431339
vt 0.801447 0.444326
vt 0.776101 0.413877
vt 0.792390 0.397399
vt 0.745538 0.389031
vt 0.758458 0.369798
vt 0.848076 0.783806
vt 0.846407 0.787078
vt 0.837216 0.780396
vt 0.839813 0.777800
vt 0.830535 0.771206
vt 0.833808 0.769539
vt 0.827031 0.760394
vt 0.830658 0.759820
vt 0.827032 0.749034
vt 0.830659 0.749609
vt 0.830549 0.738223
vt 0.833818 0.739894
vt 0.837228 0.729035
vt 0.839823 0.731632
vt 0.846418 0.722358
vt 0.848088 0.725628
vt 0.857228 0.718849
vt 0.857801 0.722474
vt 0.868594 0.718848
vt 0.868019 0.722475
vt 0.879399 0.722365
vt 0.877734 0.725636
vt 0.888592 0.729045
vt 0.885994 0.731644
vt 0.895265 0.738244
vt 0.891991 0.739909
vt 0.898773 0.749050
vt 0.895147 0.749623
vt 0.898773 0.760413
vt 0.895147 0.759838
vt 0.895260 0.771219
vt 0.891987 0.769551
vt 0.888579 0.780407
vt 0.885983 0.777810
vt 0.879384 0.787086
vt 0.877717 0.783814
vt 0.868575 0.790596
vt 0.868003 0.786969
vt 0.857210 0.790593
vt 0.857786 0.786967
vt 0.163817 0.567405
vt 0.165024 0.616940
vt 0.087672 0.616786
vt 0.085671 0.567189
vt 0.010129 0.618249
vt 0.007363 0.568345
vt 0.687522 0.130143
vt 0.645413 0.129210
vt 0.601537 0.129039
vt 0.558129 0.128695
vt 0.515723 0.128473
vt 0.473629 0.128052
vt 0.430749 0.128081
vt 0.388118 0.128217
vt 0.345612 0.128448
vt 0.303283 0.128758
vt 0.259667 0.129498
vt 0.216137 0.129878
vt 0.173606 0.130254
vt 0.627358 0.569837
vt 0.625293 0.619112
vt 0.547938 0.617304
vt 0.549570 0.568330
vt 0.471029 0.616791
vt 0.472480 0.567732
vt 0.394546 0.616573
vt 0.395705 0.567332
vt 0.317282 0.616660
vt 0.318149 0.567289
vt 0.241827 0.616605
vt 0.241639 0.567125
vt 0.090128 0.933054
vt 0.088040 0.984014
vt 0.010924 0.983533
vt 0.013250 0.933054
vt 0.685744 0.306386
vt 0.643805 0.306171
vt 0.600235 0.305484
vt 0.556911 0.305222
vt 0.514691 0.305337
vt 0.472649 0.305702
vt 0.430745 0.305875
vt 0.388477 0.306301
vt 0.346656 0.306331
vt 0.304784 0.306485
vt 0.261245 0.306840
vt 0.217572 0.307907
vt 0.175600 0.307959
vt 0.623014 0.933054
vt 0.625477 0.981098
vt 0.549008 0.982355
vt 0.546714 0.933054
vt 0.472162 0.983062
vt 0.470349 0.933054
vt 0.395141 0.983734
vt 0.394119 0.933054
vt 0.318767 0.983695
vt 0.318427 0.933054
vt 0.241823 0.984014
vt 0.242221 0.933054
vt 0.165330 0.983704
vt 0.166914 0.933054
vt 0.088354 0.632713
vt 0.090763 0.931528
vt 0.014599 0.931528
vt 0.011705 0.634149
vt 0.687616 0.138944
vt 0.685456 0.297543
vt 0.643972 0.296861
vt 0.646005 0.138099
vt 0.600317 0.296446
vt 0.602188 0.137878
vt 0.557114 0.295921
vt 0.558476 0.137619
vt 0.514809 0.295971
vt 0.516043 0.137313
vt 0.472706 0.296275
vt 0.473739 0.136930
vt 0.430773 0.296405
vt 0.430858 0.136938
vt 0.388356 0.296893
vt 0.388055 0.137071
vt 0.346520 0.296908
vt 0.345541 0.137411
vt 0.304566 0.297125
vt 0.302853 0.137638
vt 0.260944 0.297517
vt 0.259170 0.138474
vt 0.217428 0.298537
vt 0.215475 0.138908
vt 0.175844 0.298449
vt 0.173341 0.139523
vt 0.623942 0.634799
vt 0.621648 0.931528
vt 0.546053 0.931528
vt 0.547389 0.633029
vt 0.469857 0.931528
vt 0.470552 0.632493
vt 0.393914 0.931528
vt 0.394132 0.632471
vt 0.318288 0.931528
vt 0.317012 0.632563
vt 0.242510 0.931528
vt 0.241627 0.632554
vt 0.167275 0.931528
vt 0.165433 0.632869
vt 0.809301 0.326717
vt 0.800843 0.318533
vt 0.812415 0.300730
vt 0.822891 0.305163
vt 0.788668 0.341586
vt 0.783840 0.330557
vt 0.763415 0.347121
vt 0.763224 0.335626
vt 0.737904 0.342910
vt 0.742672 0.331715
vt 0.716586 0.328781
vt 0.724835 0.320248
vt 0.702001 0.308051
vt 0.712612 0.303051
vt 0.696403 0.282582
vt 0.708025 0.282520
vt 0.701383 0.257380
vt 0.711913 0.262327
vt 0.715311 0.236243
vt 0.723785 0.244634
vt 0.735863 0.221862
vt 0.740808 0.233032
vt 0.760847 0.216798
vt 0.761131 0.228259
vt 0.785833 0.221078
vt 0.781394 0.232089
vt 0.806870 0.234812
vt 0.798940 0.243256
vt 0.821527 0.255295
vt 0.811208 0.260253
vt 0.827307 0.279969
vt 0.816002 0.280309
vt 0.789523 0.307689
vt 0.797503 0.295288
vt 0.777597 0.316343
vt 0.762934 0.319325
vt 0.748323 0.316722
vt 0.735878 0.309149
vt 0.727261 0.296916
vt 0.724201 0.282523
vt 0.726772 0.268176
vt 0.734849 0.255611
vt 0.747036 0.247547
vt 0.761330 0.244418
vt 0.776020 0.246742
vt 0.788319 0.254663
vt 0.796733 0.266638
vt 0.800183 0.280894
vt 0.776309 0.295157
vt 0.780449 0.288770
vt 0.770030 0.299485
vt 0.762584 0.301249
vt 0.755086 0.299908
vt 0.748711 0.295730
vt 0.744250 0.289590
vt 0.742530 0.282166
vt 0.743957 0.274754
vt 0.748056 0.268378
vt 0.754358 0.264025
vt 0.761768 0.262375
vt 0.769276 0.263763
vt 0.775738 0.267827
vt 0.780072 0.273986
vt 0.781812 0.281328
vt 0.762224 0.281749
vt 0.903195 0.198928
vt 0.895075 0.190565
vt 0.907111 0.172515
vt 0.917779 0.177327
vt 0.881584 0.213173
vt 0.878028 0.202248
vt 0.856498 0.218158
vt 0.857290 0.206449
vt 0.831572 0.213209
vt 0.836913 0.202399
vt 0.811023 0.199053
vt 0.819500 0.190957
vt 0.796753 0.177556
vt 0.807561 0.173537
vt 0.791294 0.152659
vt 0.803682 0.152875
vt 0.796627 0.127937
vt 0.807567 0.133121
vt 0.810691 0.107094
vt 0.819239 0.115362
vt 0.831488 0.092814
vt 0.836487 0.103795
vt 0.856352 0.087531
vt 0.856749 0.099713
vt 0.880905 0.092311
vt 0.876894 0.103376
vt 0.902243 0.106037
vt 0.894898 0.115006
vt 0.916946 0.126726
vt 0.906496 0.131920
vt 0.922797 0.152373
vt 0.910935 0.152792
vt 0.884277 0.179594
vt 0.892542 0.167277
vt 0.871889 0.187826
vt 0.857445 0.190549
vt 0.843008 0.187731
vt 0.830918 0.179626
vt 0.822787 0.167678
vt 0.819597 0.153227
vt 0.822610 0.139080
vt 0.830704 0.126958
vt 0.842814 0.118702
vt 0.857156 0.115531
vt 0.871612 0.118469
vt 0.883949 0.126469
vt 0.892347 0.138440
vt 0.895185 0.152873
vt 0.871379 0.166856
vt 0.875659 0.160575
vt 0.865074 0.170996
vt 0.857635 0.172555
vt 0.850209 0.171038
vt 0.843883 0.166917
vt 0.839643 0.160700
vt 0.838070 0.153336
vt 0.839600 0.145942
vt 0.843792 0.139662
vt 0.850016 0.135392
vt 0.857452 0.133814
vt 0.864931 0.135287
vt 0.871245 0.139506
vt 0.875549 0.145710
vt 0.877178 0.153117
vt 0.857635 0.153245
vt 0.968729 0.072139
vt 0.953281 0.071695
vt 0.955953 0.025589
vt 0.968729 0.025946
vt 0.945707 0.071253
vt 0.948383 0.025150
vt 0.961158 0.135126
vt 0.945707 0.135579
vt 0.945707 0.089388
vt 0.958470 0.089015
vt 0.976308 0.072144
vt 0.976308 0.025948
vt 0.968510 0.079719
vt 0.953062 0.079274
vt 0.956173 0.018008
vt 0.968948 0.018366
vt 0.933948 0.070830
vt 0.936622 0.024717
vt 0.921189 0.024259
vt 0.921179 0.070451
vt 0.941519 0.071266
vt 0.944201 0.025156
vt 0.968018 0.133760
vt 0.965357 0.087656
vt 0.980798 0.087211
vt 0.980798 0.133385
vt 0.913595 0.024262
vt 0.913595 0.070452
vt 0.936843 0.017137
vt 0.921410 0.016680
vt 0.933727 0.078412
vt 0.920958 0.078033
s 0
usemtl Material.006
f 1/1/1 2/2/2 3/3/3
f 3/3/3 4/4/4 1/1/1
f 5/5/5 6/6/6 2/2/2
f 2/2/2 1/1/1 5/5/5
f 7/7/7 8/8/8 6/6/6
f 6/6/6 5/5/5 7/7/7
f 9/9/9 10/10/10 8/8/8
f 8/8/8 7/7/11 9/9/9
f 11/11/12 12/12/13 13/13/10
f 13/13/10 14/14/9 11/11/12
f 15/15/14 16/16/15 12/12/13
f 12/12/13 11/11/16 15/15/14
f 17/17/17 18/18/18 16/16/19
f 16/16/15 15/15/14 17/17/17
f 19/19/20 20/20/21 18/18/18
f 18/18/18 17/17/17 19/19/20
f 21/21/22 22/22/23 20/20/21
f 20/20/21 19/19/24 21/21/22
f 23/23/25 24/24/26 22/22/23
f 22/22/23 21/21/22 23/23/25
f 25/25/27 26/26/28 24/24/26
f 24/24/26 23/23/29 25/25/30
f 27/27/31 28/28/32 26/26/28
f 26/26/28 25/25/30 27/27/31
f 29/29/33 30/30/34 28/28/32
f 28/28/32 27/27/31 29/29/33
f 31/31/35 32/32/36 30/30/34
f 30/30/34 29/29/37 31/31/35
f 33/33/38 34/34/39 32/32/36
f 32/32/36 31/31/35 33/33/38
f 35/35/40 36/36/41 34/34/39
f 34/34/39 33/33/42 35/35/40
f 37/37/43 38/38/44 36/36/41
f 36/36/41 35/35/40 37/37/43
f 39/39/45 40/40/46 38/38/44
f 38/38/44 37/37/43 39/39/45
f 41/41/47 42/42/48 40/40/46
f 40/40/46 39/39/49 41/41/47
f 4/4/50 3/3/51 42/42/48
f 42/42/48 41/41/47 4/4/4
f 43/43/52 44/44/53 45/45/54
f 46/46/5 43/43/1 45/45/54
f 47/47/55 46/46/56 45/45/54
f 48/48/57 47/47/58 45/45/54
f 49/49/59 48/48/57 45/45/54
f 50/50/60 49/49/61 45/45/54
f 51/51/17 50/50/14 45/45/54
f 52/52/62 51/51/63 45/45/54
f 53/53/64 52/52/65 45/45/54
f 54/54/66 53/53/64 45/45/54
f 55/55/67 54/54/68 45/45/54
f 56/56/31 55/55/69 45/45/54
f 57/57/37 56/56/70 45/45/54
f 58/58/35 57/57/33 45/45/54
f 59/59/71 58/58/35 45/45/54
f 60/60/72 59/59/73 45/45/54
f 61/61/74 60/60/40 45/45/54
f 62/62/49 61/61/75 45/45/54
f 63/63/47 62/62/76 45/45/54
f 44/44/77 63/63/47 45/45/54
f 64/64/78 65/65/78 66/66/78
f 65/65/78 67/67/78 66/66/78
f 67/67/78 68/68/78 66/66/78
f 68/68/78 69/69/78 66/66/78
f 69/69/78 70/70/78 66/66/78
f 70/70/78 71/71/78 66/66/78
f 71/71/78 72/72/78 66/66/78
f 72/72/78 73/73/78 66/66/78
f 73/73/78 74/74/78 66/66/78
f 74/74/78 75/75/78 66/66/78
f 75/75/78 76/76/78 66/66/78
f 76/76/78 77/77/78 66/66/78
f 77/77/78 78/78/78 66/66/78
f 78/78/78 79/79/78 66/66/78
f 79/79/78 80/80/78 66/66/78
f 80/80/78 81/81/78 66/66/78
f 81/81/78 82/82/78 66/66/78
f 82/82/78 83/83/78 66/66/78
f 83/83/78 84/84/78 66/66/78
f 84/84/78 64/64/78 66/66/78
f 85/85/79 86/86/78 87/87/78
f 87/87/78 88/88/80 85/85/79
f 88/88/80 87/87/78 89/89/81
f 89/89/78 90/90/82 88/88/80
f 90/90/83 89/89/78 91/91/81
f 91/91/78 92/92/84 90/90/83
f 92/92/84 91/91/78 93/93/81
f 93/93/78 94/94/85 92/92/84
f 94/94/86 93/93/78 95/95/81
f 95/95/78 96/96/87 94/94/86
f 96/96/87 95/95/78 97/97/78
f 97/97/78 98/98/88 96/96/87
f 98/98/88 97/97/78 80/80/89
f 80/80/78 99/99/90 98/98/88
f 99/99/90 80/80/78 79/79/89
f 79/79/78 100/100/91 99/99/90
f 100/100/92 79/79/78 78/78/89
f 78/78/78 101/101/93 100/100/92
f 101/101/93 78/78/78 102/102/89
f 102/102/78 103/103/94 101/101/93
f 103/103/95 102/102/78 104/104/96
f 104/104/78 105/105/97 103/103/95
f 105/105/98 104/104/78 106/106/99
f 106/106/78 107/107/100 105/105/98
f 107/107/100 106/106/78 108/108/99
f 108/108/78 109/109/101 107/107/100
f 109/109/101 108/108/78 110/110/99
f 110/110/78 111/111/102 109/109/101
f 111/111/102 110/110/78 112/112/99
f 112/112/78 113/113/103 111/111/102
f 113/113/103 112/112/78 114/114/104
f 114/114/78 115/115/105 113/113/103
f 115/115/105 114/114/78 116/116/106
f 116/116/78 117/117/107 115/115/105
f 117/117/107 116/116/78 118/118/106
f 118/118/78 119/119/108 117/117/107
f 120/120/108 121/121/78 122/122/106
f 122/122/78 123/123/109 120/120/108
f 123/123/109 122/122/78 86/86/106
f 86/86/78 85/85/79 123/123/109
f 124/124/110 125/125/110 126/126/111
f 126/126/111 127/127/111 124/124/110
f 127/127/111 126/126/111 128/128/112
f 128/128/112 129/129/112 127/127/113
f 129/129/112 128/128/112 130/130/114
f 130/130/115 131/131/115 129/129/112
f 131/131/116 130/130/117 132/132/118
f 132/132/119 133/133/119 131/131/116
f 133/133/120 132/132/120 134/134/121
f 134/134/121 135/135/122 133/133/120
f 135/135/122 134/134/122 136/136/123
f 136/136/123 137/137/123 135/135/122
f 137/137/124 136/136/124 138/138/125
f 138/138/125 139/139/125 137/137/126
f 139/139/125 138/138/125 140/140/127
f 140/140/128 141/141/127 139/139/125
f 141/141/129 140/140/129 142/142/130
f 142/142/130 143/143/130 141/141/131
f 143/143/132 142/142/132 144/144/133
f 144/144/133 145/145/134 143/143/132
f 145/145/134 144/144/134 146/146/135
f 146/146/135 147/147/135 145/145/134
f 147/147/136 146/146/137 148/148/138
f 148/148/138 149/149/139 147/147/136
f 149/149/138 148/148/139 150/150/140
f 150/150/140 151/151/141 149/149/138
f 151/151/142 150/150/142 152/152/143
f 152/152/144 153/153/144 151/151/145
f 153/153/143 152/152/144 154/154/146
f 154/154/146 155/155/146 153/153/144
f 155/155/147 154/154/147 156/156/148
f 156/156/148 157/157/148 155/155/147
f 157/157/149 156/156/149 158/158/150
f 158/158/150 159/159/150 157/157/151
f 160/160/150 161/161/150 162/162/152
f 162/162/152 163/163/153 160/160/150
f 163/163/154 162/162/154 164/164/155
f 164/164/155 165/165/155 163/163/154
f 165/165/156 164/164/156 125/125/157
f 125/125/158 124/124/157 165/165/155
f 166/166/159 167/167/80 168/168/82
f 168/168/160 169/169/161 166/166/110
f 169/169/162 168/168/160 170/170/84
f 170/170/163 171/171/112 169/169/164
f 171/171/165 170/170/84 172/172/166
f 172/172/167 173/173/117 171/171/112
f 173/173/168 172/172/86 174/174/87
f 174/174/169 175/175/120 173/173/170
f 175/175/171 174/174/172 176/176/88
f 176/176/173 177/177/174 175/175/119
f 177/177/175 176/176/88 178/178/90
f 178/178/176 179/179/124 177/177/122
f 179/179/177 178/178/176 180/180/178
f 180/180/179 181/181/125 179/179/126
f 181/181/180 180/180/179 182/182/181
f 182/182/182 183/183/129 181/181/125
f 183/183/183 182/182/93 184/184/95
f 184/184/184 185/185/132 183/183/131
f 185/185/185 184/184/186 186/186/98
f 186/186/187 187/187/134 185/185/130
f 187/187/188 186/186/98 188/188/100
f 188/188/189 189/189/137 187/187/134
f 189/189/190 188/188/191 190/190/101
f 190/190/192 191/191/138 189/189/137
f 191/191/193 190/190/101 192/192/194
f 192/192/195 193/193/145 191/191/138
f 193/193/196 192/192/102 194/194/103
f 194/194/197 195/195/143 193/193/145
f 195/195/198 194/194/103 196/196/199
f 196/196/200 197/197/147 195/195/143
f 197/197/201 196/196/105 198/198/107
f 198/198/202 199/199/149 197/197/147
f 199/199/203 198/198/202 200/200/108
f 200/200/204 201/201/150 199/199/205
f 201/201/206 200/200/108 202/202/207
f 202/202/208 203/203/154 201/201/150
f 203/203/209 202/202/109 204/204/79
f 204/204/210 205/205/155 203/203/211
f 205/205/212 204/204/79 167/167/213
f 167/167/214 166/166/157 205/205/155
f 206/206/6 207/207/215 208/208/216
f 208/208/216 209/209/2 206/206/6
f 209/209/217 208/208/216 210/210/218
f 210/210/218 211/211/51 209/209/2
f 3/3/3 212/212/219 213/213/220
f 213/213/220 42/42/48 3/3/3
f 42/42/48 213/213/220 214/214/221
f 214/214/221 40/40/222 42/42/48
f 40/40/46 214/214/223 215/215/224
f 215/215/224 38/38/225 40/40/46
f 38/38/44 215/215/224 216/216/226
f 216/216/227 36/36/41 38/38/44
f 36/36/41 216/216/227 217/217/228
f 217/217/229 34/34/39 36/36/41
f 34/34/39 217/217/228 218/218/230
f 218/218/230 32/32/231 34/34/39
f 32/32/36 218/218/232 219/219/233
f 219/219/234 30/30/34 32/32/36
f 30/30/34 219/219/234 220/220/235
f 220/220/236 28/28/32 30/30/34
f 28/28/32 220/220/235 221/221/237
f 221/221/238 26/26/239 28/28/32
f 26/26/28 221/221/237 222/222/240
f 222/222/240 24/24/26 26/26/28
f 24/24/26 222/222/241 223/223/242
f 223/223/242 22/22/23 24/24/26
f 22/22/23 223/223/242 224/224/243
f 224/224/244 20/20/21 22/22/23
f 225/225/21 226/226/243 227/227/245
f 227/227/245 228/228/246 225/225/21
f 228/228/18 227/227/247 229/229/248
f 229/229/249 230/230/19 228/228/246
f 230/230/15 229/229/249 231/231/250
f 231/231/250 232/232/13 230/230/15
f 232/232/13 231/231/251 233/233/252
f 233/233/253 234/234/254 232/232/13
f 234/234/10 233/233/253 235/235/255
f 235/235/255 236/236/8 234/234/10
f 236/236/8 235/235/256 207/207/257
f 207/207/258 206/206/259 236/236/8
f 237/237/260 238/238/110 239/239/113
f 239/239/111 240/240/261 237/237/262
f 241/241/261 127/127/113 129/129/112
f 129/129/112 242/242/263 241/241/261
f 242/242/263 129/129/112 131/131/115
f 131/131/116 243/243/264 242/242/263
f 243/243/264 131/131/117 133/133/119
f 133/133/265 244/244/266 243/243/264
f 244/244/266 133/133/118 135/135/267
f 135/135/122 245/245/268 244/244/266
f 245/245/269 135/135/122 137/137/123
f 137/137/123 246/246/270 245/245/268
f 246/246/270 137/137/124 139/139/125
f 139/139/125 247/247/271 246/246/270
f 247/247/271 139/139/125 141/141/127
f 141/141/129 248/248/272 247/247/271
f 248/248/272 141/141/129 143/143/130
f 143/143/273 249/249/274 248/248/272
f 249/249/274 143/143/132 145/145/133
f 145/145/134 250/250/275 249/249/274
f 250/250/276 145/145/134 147/147/135
f 147/147/137 251/251/277 250/250/275
f 251/251/277 147/147/137 149/149/138
f 149/149/278 252/252/279 251/251/277
f 252/252/279 149/149/139 151/151/141
f 151/151/145 253/253/280 252/252/279
f 254/254/280 255/255/145 256/256/144
f 256/256/281 257/257/282 254/254/280
f 257/257/283 256/256/144 258/258/146
f 258/258/146 259/259/284 257/257/282
f 259/259/284 258/258/147 260/260/205
f 260/260/149 261/261/285 259/259/286
f 261/261/285 260/260/149 262/262/150
f 262/262/150 263/263/287 261/261/285
f 263/263/287 262/262/150 264/264/153
f 264/264/154 265/265/288 263/263/287
f 265/265/288 264/264/154 266/266/155
f 266/266/156 267/267/289 265/265/288
f 267/267/289 266/266/156 238/238/157
f 238/238/110 237/237/260 267/267/289
f 268/268/290 269/269/291 270/270/292
f 270/270/293 271/271/294 268/268/295
f 272/272/296 273/273/293 274/274/297
f 274/274/297 275/275/298 272/272/299
f 275/275/298 274/274/297 276/276/300
f 276/276/300 277/277/301 275/275/298
f 277/277/301 276/276/300 278/278/302
f 278/278/302 279/279/303 277/277/301
f 279/279/303 278/278/302 280/280/304
f 280/280/304 281/281/305 279/279/306
f 281/281/305 280/280/304 282/282/307
f 282/282/308 283/283/309 281/281/305
f 283/283/309 282/282/308 284/284/310
f 284/284/310 285/285/311 283/283/312
f 285/285/313 284/284/310 286/286/314
f 286/286/315 287/287/316 285/285/313
f 287/287/317 286/286/318 288/288/319
f 288/288/319 289/289/320 287/287/317
f 289/289/321 288/288/319 290/290/322
f 290/290/322 291/291/323 289/289/320
f 291/291/324 290/290/325 292/292/326
f 292/292/327 293/293/328 291/291/329
f 293/293/328 292/292/330 294/294/331
f 294/294/331 295/295/332 293/293/333
f 295/295/332 294/294/331 296/296/334
f 296/296/335 297/297/336 295/295/332
f 298/298/337 299/299/335 300/300/338
f 300/300/338 301/301/339 298/298/336
f 301/301/340 300/300/338 302/302/341
f 302/302/342 303/303/343 301/301/340
f 303/303/344 302/302/341 304/304/345
f 304/304/346 305/305/347 303/303/344
f 305/305/348 304/304/346 306/306/349
f 306/306/349 307/307/350 305/305/351
f 307/307/350 306/306/349 308/308/352
f 308/308/352 309/309/353 307/307/354
f 309/309/353 308/308/355 310/310/356
f 310/310/356 311/311/357 309/309/353
f 311/311/358 310/310/356 269/269/291
f 269/269/291 268/268/359 311/311/358
f 208/208/360 268/268/290 271/271/299
f 271/271/294 210/210/218 208/208/360
f 240/240/261 270/270/293 269/269/361
f 269/269/361 237/237/260 240/240/261
f 212/212/218 272/272/294 275/275/298
f 275/275/298 213/213/220 212/212/218
f 242/242/263 274/274/297 273/273/293
f 273/273/293 241/241/261 242/242/263
f 213/213/220 275/275/298 277/277/362
f 277/277/362 214/214/221 213/213/220
f 243/243/264 276/276/363 274/274/297
f 274/274/297 242/242/263 243/243/264
f 214/214/221 277/277/364 279/279/306
f 279/279/306 215/215/365 214/214/221
f 244/244/266 278/278/302 276/276/366
f 276/276/300 243/243/264 244/244/266
f 215/215/367 279/279/368 281/281/305
f 281/281/369 216/216/227 215/215/367
f 245/245/268 280/280/304 278/278/370
f 278/278/302 244/244/371 245/245/269
f 216/216/227 281/281/369 283/283/372
f 283/283/373 217/217/228 216/216/227
f 246/246/270 282/282/308 280/280/304
f 280/280/304 245/245/269 246/246/270
f 217/217/228 283/283/372 285/285/313
f 285/285/313 218/218/230 217/217/228
f 247/247/271 284/284/310 282/282/374
f 282/282/307 246/246/270 247/247/271
f 218/218/230 285/285/313 287/287/317
f 287/287/316 219/219/234 218/218/230
f 248/248/272 286/286/375 284/284/310
f 284/284/310 247/247/271 248/248/272
f 219/219/233 287/287/376 289/289/320
f 289/289/320 220/220/236 219/219/234
f 249/249/274 288/288/319 286/286/318
f 286/286/315 248/248/272 249/249/274
f 220/220/235 289/289/320 291/291/329
f 291/291/329 221/221/238 220/220/235
f 250/250/275 290/290/322 288/288/319
f 288/288/319 249/249/377 250/250/275
f 221/221/378 291/291/329 293/293/379
f 293/293/379 222/222/241 221/221/238
f 251/251/277 292/292/330 290/290/322
f 290/290/322 250/250/275 251/251/277
f 222/222/240 293/293/380 295/295/381
f 295/295/381 223/223/382 222/222/241
f 252/252/279 294/294/331 292/292/326
f 292/292/327 251/251/277 252/252/279
f 223/223/382 295/295/381 297/297/336
f 297/297/336 224/224/244 223/223/242
f 253/253/280 296/296/383 294/294/331
f 294/294/331 252/252/279 253/253/280
f 226/226/244 298/298/336 301/301/339
f 301/301/339 227/227/247 226/226/243
f 257/257/282 300/300/338 299/299/335
f 299/299/335 254/254/280 257/257/282
f 227/227/245 301/301/384 303/303/344
f 303/303/385 229/229/386 227/227/245
f 259/259/284 302/302/341 300/300/338
f 300/300/338 257/257/282 259/259/284
f 229/229/249 303/303/385 305/305/347
f 305/305/348 231/231/250 229/229/249
f 261/261/285 304/304/346 302/302/342
f 302/302/341 259/259/284 261/261/285
f 231/231/250 305/305/351 307/307/354
f 307/307/354 233/233/253 231/231/250
f 263/263/287 306/306/349 304/304/345
f 304/304/345 261/261/285 263/263/287
f 233/233/253 307/307/354 309/309/387
f 309/309/387 235/235/256 233/233/253
f 265/265/288 308/308/355 306/306/388
f 306/306/349 263/263/287 265/265/288
f 235/235/255 309/309/389 311/311/390
f 311/311/390 207/207/258 235/235/255
f 267/267/391 310/310/392 308/308/393
f 308/308/394 265/265/288 267/267/289
f 207/207/257 311/311/358 268/268/295
f 268/268/295 208/208/216 207/207/257
f 237/237/260 269/269/361 310/310/392
f 310/310/392 267/267/289 237/237/260
f 312/312/395 313/313/396 314/314/397
f 314/314/397 315/315/398 312/312/395
f 316/316/399 317/317/400 313/313/396
f 313/313/396 312/312/395 316/316/399
f 318/318/401 319/319/402 317/317/400
f 317/317/403 316/316/404 318/318/401
f 320/320/405 321/321/406 319/319/402
f 319/319/402 318/318/401 320/320/405
f 322/322/407 323/323/408 321/321/406
f 321/321/406 320/320/405 322/322/407
f 324/324/409 325/325/410 323/323/408
f 323/323/408 322/322/411 324/324/409
f 326/326/412 327/327/413 325/325/414
f 325/325/410 324/324/415 326/326/412
f 328/328/416 329/329/417 327/327/413
f 327/327/413 326/326/412 328/328/416
f 330/330/418 331/331/419 329/329/420
f 329/329/417 328/328/416 330/330/421
f 332/332/422 333/333/423 331/331/419
f 331/331/419 330/330/424 332/332/422
f 334/334/425 335/335/426 333/333/423
f 333/333/423 332/332/422 334/334/425
f 336/336/427 337/337/428 335/335/429
f 335/335/426 334/334/425 336/336/427
f 338/338/430 339/339/431 337/337/428
f 337/337/428 336/336/432 338/338/430
f 340/340/433 341/341/434 339/339/435
f 339/339/431 338/338/430 340/340/436
f 342/342/437 343/343/438 341/341/439
f 341/341/439 340/340/440 342/342/437
f 315/315/441 314/314/442 343/343/438
f 343/343/438 342/342/437 315/315/398
f 313/313/396 344/344/443 345/345/444
f 345/345/444 314/314/445 313/313/396
f 317/317/400 346/346/446 344/344/443
f 344/344/443 313/313/447 317/317/448
f 319/319/402 347/347/449 346/346/450
f 346/346/450 317/317/400 319/319/402
f 321/321/406 348/348/451 347/347/449
f 347/347/449 319/319/402 321/321/406
f 323/323/408 349/349/452 348/348/451
f 348/348/451 321/321/406 323/323/408
f 325/325/453 350/350/454 349/349/452
f 349/349/452 323/323/408 325/325/453
f 327/327/413 351/351/455 350/350/454
f 350/350/454 325/325/410 327/327/456
f 329/329/417 352/352/457 351/351/455
f 351/351/455 327/327/413 329/329/417
f 331/331/419 353/353/458 352/352/457
f 352/352/457 329/329/417 331/331/459
f 333/333/423 354/354/460 353/353/458
f 353/353/458 331/331/461 333/333/423
f 335/335/426 355/355/462 354/354/460
f 354/354/463 333/333/423 335/335/426
f 337/337/428 356/356/464 355/355/462
f 355/355/462 335/335/426 337/337/428
f 339/339/431 357/357/465 356/356/464
f 356/356/466 337/337/428 339/339/431
f 341/341/467 358/358/468 357/357/465
f 357/357/465 339/339/431 341/341/467
f 343/343/438 359/359/469 358/358/468
f 358/358/468 341/341/434 343/343/438
f 314/314/470 345/345/444 359/359/469
f 359/359/469 343/343/438 314/314/397
f 344/344/443 360/360/471 361/361/472
f 361/361/472 345/345/444 344/344/443
f 346/346/446 362/362/473 360/360/474
f 360/360/474 344/344/443 346/346/446
f 347/347/449 363/363/475 362/362/473
f 362/362/473 346/346/446 347/347/449
f 348/348/451 364/364/476 363/363/477
f 363/363/478 347/347/449 348/348/451
f 349/349/452 365/365/479 364/364/480
f 364/364/480 348/348/451 349/349/452
f 350/350/454 366/366/481 365/365/479
f 365/365/479 349/349/452 350/350/454
f 351/351/455 367/367/482 366/366/483
f 366/366/483 350/350/454 351/351/455
f 352/352/457 368/368/484 367/367/482
f 367/367/482 351/351/455 352/352/457
f 353/353/458 369/369/485 368/368/484
f 368/368/484 352/352/457 353/353/458
f 354/354/463 370/370/486 369/369/485
f 369/369/485 353/353/458 354/354/463
f 355/355/462 371/371/487 370/370/488
f 370/370/488 354/354/460 355/355/462
f 356/356/464 372/372/489 371/371/490
f 371/371/491 355/355/462 356/356/464
f 357/357/465 373/373/492 372/372/489
f 372/372/489 356/356/464 357/357/465
f 358/358/468 374/374/493 373/373/494
f 373/373/494 357/357/465 358/358/468
f 359/359/469 375/375/495 374/374/493
f 374/374/493 358/358/468 359/359/469
f 345/345/496 361/361/497 375/375/498
f 375/375/498 359/359/469 345/345/444
f 361/361/472 360/360/474 376/376/499
f 360/360/471 362/362/473 376/376/499
f 362/362/473 363/363/500 376/376/499
f 363/363/478 364/364/480 376/376/499
f 364/364/480 365/365/479 376/376/499
f 365/365/479 366/366/483 376/376/499
f 366/366/483 367/367/482 376/376/499
f 367/367/482 368/368/484 376/376/499
f 368/368/484 369/369/485 376/376/499
f 369/369/485 370/370/488 376/376/499
f 370/370/501 371/371/491 376/376/499
f 371/371/490 372/372/502 376/376/499
f 372/372/502 373/373/494 376/376/499
f 373/373/494 374/374/493 376/376/499
f 374/374/493 375/375/495 376/376/499
f 375/375/498 361/361/472 376/376/499
f 377/377/503 378/378/504 379/379/505
f 379/379/505 380/380/506 377/377/503
f 381/381/507 382/382/508 378/378/509
f 378/378/509 377/377/503 381/381/507
f 383/383/510 384/384/511 382/382/508
f 382/382/508 381/381/507 383/383/510
f 385/385/512 386/386/513 384/384/511
f 384/384/511 383/383/510 385/385/512
f 387/387/514 388/388/515 386/386/513
f 386/386/513 385/385/512 387/387/514
f 389/389/516 390/390/517 388/388/518
f 388/388/515 387/387/514 389/389/519
f 391/391/520 392/392/521 390/390/522
f 390/390/517 389/389/519 391/391/520
f 393/393/523 394/394/524 392/392/521
f 392/392/525 391/391/526 393/393/523
f 395/395/527 396/396/528 394/394/524
f 394/394/524 393/393/523 395/395/527
f 397/397/529 398/398/530 396/396/528
f 396/396/528 395/395/527 397/397/529
f 399/399/531 400/400/532 398/398/533
f 398/398/533 397/397/534 399/399/531
f 401/401/535 402/402/536 400/400/532
f 400/400/532 399/399/531 401/401/537
f 403/403/538 404/404/539 402/402/536
f 402/402/536 401/401/535 403/403/538
f 405/405/540 406/406/541 404/404/542
f 404/404/539 403/403/538 405/405/540
f 407/407/543 408/408/544 406/406/545
f 406/406/541 405/405/546 407/407/543
f 380/380/506 379/379/547 408/408/548
f 408/408/548 407/407/543 380/380/506
f 378/378/509 409/409/549 410/410/550
f 410/410/550 379/379/505 378/378/509
f 382/382/508 411/411/551 409/409/549
f 409/409/549 378/378/552 382/382/508
f 384/384/511 412/412/553 411/411/554
f 411/411/555 382/382/508 384/384/511
f 386/386/513 413/413/556 412/412/557
f 412/412/557 384/384/511 386/386/513
f 388/388/515 414/414/558 413/413/559
f 413/413/559 386/386/560 388/388/515
f 390/390/517 415/415/561 414/414/558
f 414/414/558 388/388/515 390/390/517
f 392/392/521 416/416/562 415/415/563
f 415/415/564 390/390/517 392/392/521
f 394/394/524 417/417/565 416/416/562
f 416/416/566 392/392/525 394/394/524
f 396/396/528 418/418/567 417/417/565
f 417/417/568 394/394/524 396/396/528
f 398/398/533 419/419/569 418/418/567
f 418/418/567 396/396/528 398/398/533
f 400/400/532 420/420/570 419/419/571
f 419/419/572 398/398/533 400/400/532
f 402/402/536 421/421/573 420/420/570
f 420/420/570 400/400/532 402/402/536
f 404/404/542 422/422/574 421/421/573
f 421/421/573 402/402/536 404/404/542
f 406/406/541 423/423/575 422/422/574
f 422/422/574 404/404/542 406/406/541
f 408/408/544 424/424/576 423/423/575
f 423/423/577 406/406/545 408/408/548
f 379/379/505 410/410/550 424/424/576
f 424/424/576 408/408/544 379/379/547
f 409/409/549 425/425/578 426/426/579
f 426/426/579 410/410/550 409/409/549
f 411/411/554 427/427/580 425/425/578
f 425/425/578 409/409/549 411/411/555
f 412/412/557 428/428/581 427/427/582
f 427/427/582 411/411/554 412/412/553
f 413/413/559 429/429/583 428/428/581
f 428/428/584 412/412/557 413/413/559
f 414/414/558 430/430/585 429/429/586
f 429/429/586 413/413/587 414/414/558
f 415/415/564 431/431/588 430/430/585
f 430/430/585 414/414/558 415/415/564
f 416/416/566 432/432/589 431/431/588
f 431/431/588 415/415/564 416/416/562
f 417/417/590 433/433/591 432/432/589
f 432/432/589 416/416/562 417/417/590
f 418/418/567 434/434/592 433/433/591
f 433/433/591 417/417/565 418/418/567
f 419/419/571 435/435/593 434/434/592
f 434/434/592 418/418/567 419/419/571
f 420/420/570 436/436/594 435/435/595
f 435/435/596 419/419/571 420/420/570
f 421/421/597 437/437/598 436/436/599
f 436/436/594 420/420/570 421/421/597
f 422/422/574 438/438/600 437/437/601
f 437/437/601 421/421/573 422/422/574
f 423/423/577 439/439/602 438/438/600
f 438/438/600 422/422/574 423/423/577
f 424/424/576 440/440/603 439/439/602
f 439/439/602 423/423/577 424/424/576
f 410/410/550 426/426/579 440/440/603
f 440/440/603 424/424/576 410/410/550
f 426/426/579 425/425/578 441/441/604
f 425/425/578 427/427/582 441/441/604
f 427/427/580 428/428/581 441/441/604
f 428/428/581 429/429/586 441/441/604
f 429/429/586 430/430/585 441/441/604
f 430/430/585 431/431/588 441/441/604
f 431/431/588 432/432/589 441/441/604
f 432/432/589 433/433/591 441/441/604
f 433/433/591 434/434/592 441/441/604
f 434/434/592 435/435/605 441/441/604
f 435/435/593 436/436/594 441/441/604
f 436/436/594 437/437/601 441/441/604
f 437/437/606 438/438/600 441/441/604
f 438/438/600 439/439/602 441/441/604
f 439/439/602 440/440/603 441/441/604
f 440/440/603 426/426/579 441/441/604
f 442/442/607 443/443/607 444/444/607
f 444/444/607 445/445/607 442/442/607
f 443/443/608 446/446/609 447/447/609
f 447/447/609 444/444/610 443/443/611
f 448/448/609 449/449/612 450/450/612
f 450/450/612 451/451/609 448/448/609
f 452/452/612 442/442/607 445/445/613
f 445/445/613 453/453/612 452/452/614
f 454/454/612 455/455/609 443/443/615
f 443/443/607 442/442/615 454/454/616
f 445/445/615 444/444/607 456/456/617
f 456/456/609 457/457/612 445/445/618
f 458/458/619 459/459/619 460/460/619
f 460/460/619 461/461/619 458/458/619
f 462/462/620 463/463/620 459/459/621
f 459/459/622 458/458/622 462/462/623
f 464/464/624 465/465/624 466/466/625
f 466/466/626 467/467/623 464/464/624
f 461/461/627 460/460/619 468/468/624
f 468/468/624 469/469/628 461/461/619
f 459/459/629 470/470/625 471/471/624
f 471/471/624 460/460/629 459/459/622
f 472/472/623 458/458/622 461/461/629
f 461/461/630 473/473/631 472/472/623
